<?xml version="1.0" encoding="UTF-8" standalone="no"?>
<svg
   xmlns:dc="http://purl.org/dc/elements/1.1/"
   xmlns:cc="http://creativecommons.org/ns#"
   xmlns:rdf="http://www.w3.org/1999/02/22-rdf-syntax-ns#"
   xmlns:svg="http://www.w3.org/2000/svg"
   xmlns="http://www.w3.org/2000/svg"
   xmlns:xlink="http://www.w3.org/1999/xlink"
   xmlns:sodipodi="http://sodipodi.sourceforge.net/DTD/sodipodi-0.dtd"
   xmlns:inkscape="http://www.inkscape.org/namespaces/inkscape"
   height="70"
   width="240"
   data-v-fde0c5aa=""
   viewBox="0 0 240 70"
   class="iconLeft"
   version="1.1"
   id="svg21"
   sodipodi:docname="default.svg"
   inkscape:version="1.0 (4035a4fb49, 2020-05-01)">
  <metadata
     id="metadata25">
    <rdf:RDF>
      <cc:Work
         rdf:about="">
        <dc:format>image/svg+xml</dc:format>
        <dc:type
           rdf:resource="http://purl.org/dc/dcmitype/StillImage" />
        <dc:title></dc:title>
      </cc:Work>
    </rdf:RDF>
  </metadata>
  <sodipodi:namedview
     inkscape:document-rotation="0"
     pagecolor="#ffffff"
     bordercolor="#666666"
     borderopacity="1"
     objecttolerance="10"
     gridtolerance="10"
     guidetolerance="10"
     inkscape:pageopacity="0"
     inkscape:pageshadow="2"
     inkscape:window-width="2111"
     inkscape:window-height="1158"
     id="namedview23"
     showgrid="false"
     inkscape:zoom="3.36"
     inkscape:cx="143.00595"
     inkscape:cy="99.047619"
     inkscape:window-x="54"
     inkscape:window-y="0"
     inkscape:window-maximized="0"
     inkscape:current-layer="svg21" />
  <!---->
  <defs
     data-v-fde0c5aa=""
     id="defs2">
    <!---->
    <clipPath
       clipPathUnits="userSpaceOnUse"
       id="clipPath852">
      <rect
         style="fill:#68d391"
         id="rect854"
         width="246.24098"
         height="72.326927"
         x="25.679016"
         y="113.76686" />
    </clipPath>
    <linearGradient
       gradientUnits="userSpaceOnUse"
       y2="8.402164"
       x2="21.227865"
       y1="8.402164"
       x1="0.52253205"
       gradientTransform="scale(2.1434092,0.46654648)"
       id="linearGradient18"
       xlink:href="#78938583-aa23-4a4e-b730-0c612ca63472"
       inkscape:collect="always" />
    <linearGradient
       gradientUnits="userSpaceOnUse"
       y2="8.402164"
       x2="21.227865"
       y1="8.402164"
       x1="0.52253205"
       gradientTransform="scale(2.1434092,0.46654648)"
       id="linearGradient20"
       xlink:href="#78938583-aa23-4a4e-b730-0c612ca63472"
       inkscape:collect="always" />
  </defs>
  <rect
     transform="translate(-27.895482,-114.25042)"
     data-v-fde0c5aa=""
     fill="#24305e"
     x="0"
     y="0"
     width="300"
     height="300"
     class="logo-background-square"
     id="rect4"
     clip-path="url(#clipPath852)"
     inkscape:export-xdpi="96"
     inkscape:export-ydpi="96" />
  <defs
     data-v-fde0c5aa=""
     id="defs11">
    <linearGradient
       data-v-fde0c5aa=""
       gradientTransform="rotate(25)"
       id="78938583-aa23-4a4e-b730-0c612ca63472"
       x1="0"
       y1="0"
       x2="1"
       y2="0">
      <stop
         data-v-fde0c5aa=""
         offset="0%"
         stop-color="#ffffff"
         stop-opacity="1"
         id="stop6" />
      <stop
         data-v-fde0c5aa=""
         offset="100%"
         stop-color="#A8D0E6"
         stop-opacity="1"
         id="stop8" />
    </linearGradient>
  </defs>
  <g
     style="fill:url(#linearGradient20)"
     data-v-fde0c5aa=""
     id="4fbf64ca-044b-4a7f-bcc4-a347744cd7d4"
     fill="url(#78938583-aa23-4a4e-b730-0c612ca63472)"
     transform="matrix(3.0885851,0,0,3.0885851,91.573888,8.7244607)"
     inkscape:export-xdpi="96"
     inkscape:export-ydpi="96">
    <path
       style="fill:url(#linearGradient18)"
       d="M 12.17,3.92 H 8.33 L 6.69,11.13 5.05,3.92 H 1.12 v 9.66 H 3.64 V 9.52 c 0,-0.84 0,-2.09 -0.03,-3.07 0.16,0.98 0.44,2.23 0.66,3.07 l 1.08,4.06 H 7.94 L 9,9.52 C 9.23,8.67 9.51,7.43 9.67,6.45 9.65,7.43 9.65,8.68 9.65,9.52 v 4.06 h 2.52 z m 12.92,0 h -3.84 l -1.64,7.21 -1.63,-7.21 h -3.94 v 9.66 h 2.52 V 9.52 c 0,-0.84 0,-2.09 -0.03,-3.07 0.16,0.98 0.44,2.23 0.66,3.07 l 1.08,4.06 h 2.59 L 21.92,9.52 C 22.15,8.67 22.43,7.43 22.6,6.45 22.57,7.43 22.57,8.68 22.57,9.52 v 4.06 h 2.52 z m 6.76,0.06 C 31.36,3.92 31.14,3.92 30.62,3.92 h -3.66 v 9.66 h 3.66 c 0.52,0 0.74,0 1.23,-0.06 2.24,-0.25 4.09,-1.87 4.09,-4.9 0,-3.02 -1.85,-4.39 -4.09,-4.64 z m -0.67,7.61 c -0.32,0.03 -0.55,0.03 -0.91,0.03 H 29.48 V 5.88 h 0.79 c 0.36,0 0.59,0 0.91,0.03 1.26,0.11 2.13,1.03 2.13,2.76 0,1.72 -0.87,2.81 -2.13,2.92 z M 43.72,8.33 c 0.95,-0.34 1.42,-1.01 1.42,-1.89 0,-1.26 -0.9,-2.27 -2.5,-2.46 C 42.15,3.92 41.93,3.92 41.41,3.92 h -3.96 v 9.66 h 3.85 c 0.62,0 0.94,0 1.43,-0.06 1.3,-0.15 2.77,-1.05 2.77,-2.85 0,-1.18 -0.56,-1.99 -1.78,-2.34 z M 39.97,5.88 h 1.13 c 0.23,0 0.45,0.01 0.63,0.04 0.48,0.07 0.77,0.34 0.77,0.88 0,0.58 -0.32,0.82 -0.78,0.89 -0.18,0.02 -0.39,0.04 -0.62,0.04 h -1.13 z m 1.99,5.73 c -0.18,0.01 -0.41,0.01 -0.63,0.01 H 39.97 V 9.55 h 1.29 c 0.22,0 0.45,0 0.63,0.01 0.52,0.04 0.98,0.38 0.98,1.02 0,0.63 -0.46,1 -0.91,1.03 z"
       id="path13" />
  </g>
  <defs
     data-v-fde0c5aa=""
     id="defs16">
    <!---->
  </defs>
  <g
     data-v-fde0c5aa=""
     id="89620eea-dac3-42c2-93b4-dc4620fb936e"
     stroke="none"
     fill="#f8e9a1"
     transform="matrix(0.69928589,0,0,0.69928589,12.159062,0.77305075)"
     inkscape:export-xdpi="96"
     inkscape:export-ydpi="96">
    <path
       d="M 78.096,31.523 V 68.569 H 99.629 V 31.523 H 78.174 Z M 0.122,31.475 H 0.044 V 68.521 H 22.236 V 31.475 H 14.863 Z M 38.54,31.523 H 25.137 v 37.046 h 50.39 V 31.523 Z m 25.835,20.035 -23.94,12.109 c -1.265,0.645 -2.3,0.264 -2.3,-0.84 V 37.969 c 0,-1.104 1.035,-1.484 2.3,-0.845 l 23.94,12.114 c 1.27,0.64 1.27,1.685 0,2.32 z M 99.922,20.586 v -2.568 h -99.99 l 0.039,2.539 H 1.866 V 26.06 H 1.729 v 0.01 L 0.21,26.074 V 26.06 H 0.049 l 0.044,2.891 H 99.922 V 26.07 h -5.4 V 20.582 Z M 14.219,26.069 H 5.874 l 0.005,-5.488 8.34,0.005 z m 4.135,0 0.005,-5.488 8.335,0.01 0.005,5.479 H 18.354 Z M 30.83,26.064 v -5.479 h 8.34 l 0.01,5.483 z m 22.1,0.01 H 43.315 L 43.31,20.586 h 9.629 z m 12.48,0 -8.33,-0.005 -0.01,-5.483 8.35,-0.005 z m 4.151,0 v -5.488 l 8.33,0.005 v 5.479 z m 20.82,-0.005 h -8.34 v -5.488 l 8.34,0.005 z m 9.521,47.588 v -2.578 h -99.98 l 0.034,2.539 h 1.895 v 5.508 H 1.714 v 0.01 H 0.195 v -0.01 H 0.034 l 0.044,2.891 h 99.824 v -2.881 h -5.4 l 0.01,-5.488 z M 14.204,79.136 H 5.859 l 0.005,-5.488 h 8.34 z m 4.136,0 0.005,-5.488 8.335,0.01 0.005,5.479 H 18.34 Z m 12.475,0 v -5.488 h 8.34 l 0.01,5.488 z m 22.1,0 H 43.3 l -0.005,-5.488 h 9.629 z m 12.485,0 h -8.34 v -5.488 h 8.34 z m 4.151,0 v -5.488 l 8.32,0.01 0.01,5.479 h -8.33 z m 20.82,0 h -8.35 l 0.01,-5.488 h 8.34 z"
       id="path18" />
  </g>
  <!---->
</svg>
